<svg width="48" height="48" viewBox="0 0 48 48" fill="none" xmlns="http://www.w3.org/2000/svg">
<path d="M45.3492 26.4414C47.0849 23.6908 47.9997 20.5243 47.9997 17.2499C47.9997 7.73831 40.2614 0 30.7498 0C27.5638 0 24.4509 0.875719 21.7479 2.53247C21.3065 2.80303 21.1679 3.38016 21.4386 3.82162C21.709 4.263 22.2862 4.40166 22.7277 4.131C25.1358 2.65509 27.9098 1.875 30.7499 1.875C39.2276 1.875 46.1248 8.77209 46.1248 17.2499C46.1248 20.3246 45.2204 23.2919 43.5092 25.8309C43.2822 26.1677 43.3016 26.6031 43.5352 26.9157L44.5625 30.7497L40.439 29.6448C40.1689 29.5724 39.8806 29.6242 39.6528 29.7864C37.043 31.6434 33.9644 32.6249 30.7499 32.6249C28.9187 32.6249 27.1276 32.305 25.4242 31.6757C24.225 27.2596 20.7406 23.7751 16.3245 22.576C15.6951 20.8726 15.375 19.0818 15.375 17.25C15.375 14.3784 16.1714 11.578 17.6782 9.1515C17.9513 8.71163 17.8161 8.13366 17.3762 7.86047C16.9365 7.58738 16.3583 7.72247 16.0852 8.16244C14.3938 10.8863 13.4999 14.0287 13.4999 17.25C13.4999 18.9363 13.742 20.5921 14.2192 22.1887C13.7974 22.1471 13.3699 22.1253 12.9374 22.1253C5.80369 22.1253 0 27.9291 0 35.0627C0 37.6229 0.74025 40.0806 2.14481 42.1991L1.1415 45.944C1.05478 46.2675 1.14731 46.6127 1.38412 46.8496C1.62094 47.0864 1.96603 47.1788 2.28966 47.0922L6.12731 46.0639C8.17106 47.3317 10.5163 48 12.9374 48C15.4016 48 17.7985 47.3044 19.869 45.9883C20.306 45.7105 20.435 45.1312 20.1573 44.6942C19.8795 44.2572 19.2999 44.1282 18.8632 44.4059C17.0937 45.5306 15.0448 46.125 12.9374 46.125C10.7437 46.125 8.62331 45.4839 6.80578 44.271C6.58144 44.1213 6.30347 44.0753 6.04275 44.1453L3.37275 44.8607L4.06781 42.2667C4.14028 41.9963 4.08806 41.7075 3.92541 41.4796C2.58394 39.5993 1.87491 37.3804 1.87491 35.0625C1.87491 28.9627 6.83756 24.0001 12.9373 24.0001C19.0371 24.0001 23.9998 28.9627 23.9998 35.0626C23.9998 36.3652 23.7758 37.6402 23.3341 38.852C23.1567 39.3383 23.4073 39.8765 23.8938 40.0538C24.3802 40.2311 24.9184 39.9806 25.0957 39.4942C25.6127 38.076 25.8748 36.585 25.8748 35.0626C25.8748 34.6301 25.8531 34.2027 25.8114 33.781C27.4082 34.2581 29.0642 34.4998 30.7499 34.4998C34.2069 34.4998 37.5243 33.4877 40.373 31.5682L45.6457 32.981C45.9694 33.0677 46.3144 32.9752 46.5513 32.7383C46.7881 32.5015 46.8806 32.1563 46.7939 31.8327L45.3492 26.4414Z" fill="#FF3F3A"/>
</svg>
